<svg width="1048" height="844" viewBox="0 0 1048 844" fill="none" xmlns="http://www.w3.org/2000/svg">
<path d="M40.8423 811L52.4332 741.182H100.092L97.7742 754.886H66.9901L64.6719 769.205H92.4219L90.1037 782.943H62.3537L57.7173 811H40.8423ZM131.251 788.398L136.229 758.636H152.865L144.138 811H128.251L129.854 801.25H129.308C127.695 804.455 125.32 807 122.183 808.886C119.047 810.75 115.513 811.682 111.581 811.682C108.013 811.682 105.013 810.864 102.581 809.227C100.149 807.591 98.4219 805.307 97.3991 802.375C96.3991 799.42 96.2173 795.966 96.8537 792.011L102.445 758.636H119.115L114.104 788.739C113.672 791.58 114.047 793.818 115.229 795.455C116.433 797.091 118.32 797.909 120.888 797.909C122.547 797.909 124.104 797.545 125.558 796.818C127.013 796.068 128.24 794.989 129.24 793.58C130.263 792.148 130.933 790.42 131.251 788.398ZM183.01 741.182L171.419 811H154.749L166.339 741.182H183.01ZM210.291 741.182L198.7 811H182.03L193.621 741.182H210.291ZM275.72 762.25C275.902 759.682 275.22 757.693 273.675 756.284C272.152 754.875 269.743 754.17 266.447 754.17C264.266 754.17 262.402 754.455 260.857 755.023C259.311 755.568 258.095 756.341 257.209 757.341C256.322 758.318 255.766 759.455 255.538 760.75C255.334 761.773 255.391 762.682 255.709 763.477C256.027 764.273 256.584 764.977 257.379 765.591C258.197 766.205 259.209 766.739 260.413 767.193C261.641 767.648 263.016 768.045 264.538 768.386L270.266 769.75C273.584 770.5 276.459 771.5 278.891 772.75C281.345 773.977 283.334 775.466 284.857 777.216C286.379 778.943 287.425 780.932 287.993 783.182C288.561 785.432 288.607 787.955 288.129 790.75C287.402 795.159 285.663 798.943 282.913 802.102C280.186 805.261 276.618 807.682 272.209 809.364C267.822 811.045 262.72 811.886 256.902 811.886C251.084 811.886 246.141 811.011 242.072 809.261C238.027 807.489 235.095 804.818 233.277 801.25C231.459 797.682 230.97 793.182 231.811 787.75H247.936C247.686 790 247.97 791.875 248.788 793.375C249.629 794.875 250.925 796.011 252.675 796.784C254.425 797.557 256.538 797.943 259.016 797.943C261.288 797.943 263.277 797.636 264.982 797.023C266.709 796.409 268.084 795.557 269.107 794.466C270.152 793.375 270.788 792.125 271.016 790.716C271.243 789.42 271.027 788.295 270.368 787.341C269.732 786.386 268.641 785.557 267.095 784.852C265.572 784.148 263.572 783.511 261.095 782.943L254.107 781.239C248.334 779.83 243.959 777.58 240.982 774.489C238.027 771.398 236.982 767.205 237.845 761.909C238.572 757.568 240.368 753.773 243.232 750.523C246.118 747.273 249.766 744.75 254.175 742.955C258.607 741.136 263.482 740.227 268.8 740.227C274.209 740.227 278.754 741.148 282.436 742.989C286.141 744.807 288.811 747.375 290.447 750.693C292.107 753.989 292.584 757.841 291.879 762.25H275.72ZM331.595 758.636L329.516 770.909H296.482L298.561 758.636H331.595ZM307.527 746.091H324.197L316.152 794.534C315.993 795.557 316.016 796.386 316.22 797.023C316.447 797.636 316.857 798.08 317.447 798.352C318.061 798.602 318.811 798.727 319.697 798.727C320.311 798.727 320.993 798.659 321.743 798.523C322.493 798.386 323.061 798.284 323.447 798.216L323.993 810.25C323.107 810.5 321.913 810.784 320.413 811.102C318.936 811.443 317.209 811.659 315.232 811.75C311.232 811.909 307.925 811.443 305.311 810.352C302.72 809.239 300.891 807.511 299.822 805.17C298.777 802.83 298.572 799.898 299.209 796.375L307.527 746.091ZM345.999 811.886C342.68 811.886 339.817 811.33 337.408 810.216C335.021 809.08 333.271 807.364 332.158 805.068C331.067 802.773 330.805 799.909 331.374 796.477C331.874 793.568 332.794 791.125 334.135 789.148C335.499 787.148 337.169 785.523 339.146 784.273C341.146 783.023 343.374 782.068 345.828 781.409C348.283 780.75 350.851 780.307 353.533 780.08C356.533 779.807 358.964 779.511 360.828 779.193C362.714 778.875 364.124 778.432 365.055 777.864C365.987 777.273 366.555 776.455 366.76 775.409V775.239C367.033 773.489 366.658 772.136 365.635 771.182C364.612 770.227 363.078 769.75 361.033 769.75C358.851 769.75 356.987 770.227 355.442 771.182C353.896 772.136 352.817 773.455 352.203 775.136L336.93 774.591C337.885 771.409 339.521 768.568 341.839 766.068C344.158 763.545 347.101 761.568 350.669 760.136C354.26 758.682 358.408 757.955 363.112 757.955C366.43 757.955 369.43 758.352 372.112 759.148C374.794 759.92 377.055 761.057 378.896 762.557C380.76 764.034 382.089 765.852 382.885 768.011C383.68 770.17 383.851 772.636 383.396 775.409L377.43 811H361.749L362.976 803.705H362.567C361.339 805.477 359.896 806.977 358.237 808.205C356.601 809.432 354.76 810.352 352.714 810.966C350.669 811.58 348.43 811.886 345.999 811.886ZM353.021 800.977C354.771 800.977 356.43 800.614 357.999 799.886C359.567 799.159 360.885 798.159 361.953 796.886C363.044 795.591 363.737 794.091 364.033 792.386L364.817 787.409C364.339 787.659 363.737 787.886 363.01 788.091C362.283 788.295 361.51 788.489 360.692 788.67C359.874 788.83 359.033 788.989 358.169 789.148C357.328 789.284 356.521 789.409 355.749 789.523C354.112 789.773 352.692 790.159 351.487 790.682C350.283 791.205 349.317 791.886 348.589 792.727C347.885 793.545 347.453 794.523 347.294 795.659C347.021 797.364 347.419 798.682 348.487 799.614C349.555 800.523 351.067 800.977 353.021 800.977ZM411.93 811.989C406.408 811.989 401.851 810.852 398.26 808.58C394.692 806.307 392.192 803.148 390.76 799.102C389.328 795.034 389.067 790.33 389.976 784.989C390.839 779.625 392.669 774.92 395.464 770.875C398.26 766.807 401.828 763.636 406.169 761.364C410.51 759.091 415.419 757.955 420.896 757.955C425.737 757.955 429.805 758.83 433.101 760.58C436.419 762.33 438.817 764.807 440.294 768.011C441.794 771.193 442.237 774.932 441.624 779.227H426.044C426.18 776.568 425.635 774.477 424.408 772.955C423.18 771.409 421.396 770.636 419.055 770.636C417.078 770.636 415.26 771.182 413.601 772.273C411.964 773.341 410.567 774.932 409.408 777.045C408.271 779.136 407.453 781.727 406.953 784.818C406.453 787.909 406.419 790.523 406.851 792.659C407.305 794.773 408.158 796.375 409.408 797.466C410.68 798.534 412.294 799.068 414.249 799.068C415.794 799.068 417.226 798.739 418.544 798.08C419.862 797.42 421.01 796.455 421.987 795.182C422.964 793.886 423.726 792.318 424.271 790.477H439.817C438.93 794.818 437.214 798.602 434.669 801.83C432.146 805.034 428.953 807.534 425.089 809.33C421.226 811.102 416.839 811.989 411.93 811.989ZM462.189 797.261L465.564 777.386H467.848L485.78 758.636H504.666L478.348 785.5H473.95L462.189 797.261ZM444.905 811L456.496 741.182H473.166L461.575 811H444.905ZM477.428 811L467.337 789.25L480.325 777.42L496.689 811H477.428ZM548.712 811H522.53L534.121 741.182H559.518C566.609 741.182 572.518 742.625 577.246 745.511C581.996 748.375 585.348 752.489 587.303 757.852C589.28 763.193 589.655 769.557 588.428 776.943C587.246 784.08 584.871 790.193 581.303 795.284C577.757 800.375 573.212 804.273 567.666 806.977C562.121 809.659 555.803 811 548.712 811ZM541.757 796.614H549.768C553.678 796.614 557.132 795.909 560.132 794.5C563.155 793.068 565.655 790.784 567.632 787.648C569.609 784.489 571.018 780.341 571.859 775.205C572.678 770.295 572.643 766.42 571.757 763.58C570.893 760.716 569.212 758.67 566.712 757.443C564.234 756.193 560.996 755.568 556.996 755.568H548.609L541.757 796.614ZM616.996 811.989C611.518 811.989 606.973 810.909 603.359 808.75C599.768 806.568 597.246 803.466 595.791 799.443C594.337 795.398 594.075 790.591 595.007 785.023C595.916 779.614 597.768 774.886 600.564 770.841C603.382 766.773 606.928 763.614 611.2 761.364C615.473 759.091 620.234 757.955 625.484 757.955C629.212 757.955 632.518 758.534 635.405 759.693C638.291 760.852 640.678 762.58 642.564 764.875C644.45 767.148 645.734 769.943 646.416 773.261C647.098 776.58 647.075 780.386 646.348 784.682L645.7 788.841H600.223L601.757 779.159H631.757C632.03 777.386 631.882 775.807 631.314 774.42C630.746 773.034 629.825 771.955 628.553 771.182C627.303 770.386 625.768 769.989 623.95 769.989C622.109 769.989 620.382 770.42 618.768 771.284C617.178 772.125 615.825 773.261 614.712 774.693C613.598 776.125 612.871 777.739 612.53 779.534L610.723 789.455C610.359 791.659 610.462 793.545 611.03 795.114C611.598 796.682 612.575 797.886 613.962 798.727C615.348 799.545 617.132 799.955 619.314 799.955C620.768 799.955 622.132 799.761 623.405 799.375C624.678 798.966 625.814 798.364 626.814 797.568C627.837 796.75 628.666 795.761 629.303 794.602L644.507 795.045C643.28 798.477 641.382 801.466 638.814 804.011C636.246 806.534 633.109 808.5 629.405 809.909C625.723 811.295 621.587 811.989 616.996 811.989ZM708.615 758.636L681.922 811H662.831L653.626 758.636H670.57L674.251 794.705H674.797L690.445 758.636H708.615ZM728.933 811.989C723.456 811.989 718.911 810.909 715.297 808.75C711.706 806.568 709.183 803.466 707.729 799.443C706.274 795.398 706.013 790.591 706.945 785.023C707.854 779.614 709.706 774.886 712.501 770.841C715.32 766.773 718.865 763.614 723.138 761.364C727.411 759.091 732.172 757.955 737.422 757.955C741.149 757.955 744.456 758.534 747.342 759.693C750.229 760.852 752.615 762.58 754.501 764.875C756.388 767.148 757.672 769.943 758.354 773.261C759.036 776.58 759.013 780.386 758.286 784.682L757.638 788.841H712.161L713.695 779.159H743.695C743.967 777.386 743.82 775.807 743.251 774.42C742.683 773.034 741.763 771.955 740.49 771.182C739.24 770.386 737.706 769.989 735.888 769.989C734.047 769.989 732.32 770.42 730.706 771.284C729.115 772.125 727.763 773.261 726.649 774.693C725.536 776.125 724.808 777.739 724.467 779.534L722.661 789.455C722.297 791.659 722.399 793.545 722.967 795.114C723.536 796.682 724.513 797.886 725.899 798.727C727.286 799.545 729.07 799.955 731.251 799.955C732.706 799.955 734.07 799.761 735.342 799.375C736.615 798.966 737.751 798.364 738.751 797.568C739.774 796.75 740.604 795.761 741.24 794.602L756.445 795.045C755.217 798.477 753.32 801.466 750.751 804.011C748.183 806.534 745.047 808.5 741.342 809.909C737.661 811.295 733.524 811.989 728.933 811.989ZM790.697 741.182L779.107 811H762.436L774.027 741.182H790.697ZM814.126 811.989C808.604 811.989 804.047 810.852 800.456 808.58C796.888 806.307 794.376 803.136 792.922 799.068C791.467 795 791.183 790.273 792.07 784.886C792.956 779.523 794.786 774.818 797.558 770.773C800.331 766.727 803.876 763.58 808.195 761.33C812.513 759.08 817.411 757.955 822.888 757.955C828.388 757.955 832.922 759.091 836.49 761.364C840.081 763.636 842.604 766.807 844.058 770.875C845.536 774.943 845.831 779.682 844.945 785.091C844.058 790.455 842.217 795.159 839.422 799.205C836.626 803.227 833.081 806.364 828.786 808.614C824.49 810.864 819.604 811.989 814.126 811.989ZM816.001 799.409C818.047 799.409 819.876 798.795 821.49 797.568C823.126 796.341 824.501 794.625 825.615 792.42C826.729 790.216 827.524 787.659 828.001 784.75C828.479 781.886 828.524 779.375 828.138 777.216C827.774 775.034 827.001 773.341 825.82 772.136C824.638 770.909 823.036 770.295 821.013 770.295C818.967 770.295 817.126 770.92 815.49 772.17C813.854 773.398 812.479 775.114 811.365 777.318C810.274 779.5 809.49 782.057 809.013 784.989C808.536 787.852 808.479 790.364 808.842 792.523C809.206 794.682 809.99 796.375 811.195 797.602C812.399 798.807 814.001 799.409 816.001 799.409ZM845.984 830.636L858.053 758.636H874.553L873.087 767.602H873.598C874.507 766.011 875.712 764.477 877.212 763C878.734 761.523 880.564 760.318 882.7 759.386C884.837 758.432 887.28 757.955 890.03 757.955C893.666 757.955 896.905 758.909 899.746 760.818C902.587 762.727 904.655 765.67 905.95 769.648C907.246 773.625 907.382 778.693 906.359 784.852C905.382 790.784 903.609 795.75 901.041 799.75C898.496 803.75 895.473 806.75 891.973 808.75C888.473 810.75 884.803 811.75 880.962 811.75C878.325 811.75 876.098 811.318 874.28 810.455C872.484 809.591 871.064 808.455 870.018 807.045C868.973 805.636 868.246 804.125 867.837 802.511H867.359L862.723 830.636H845.984ZM870.018 784.818C869.564 787.636 869.541 790.091 869.95 792.182C870.359 794.273 871.189 795.898 872.439 797.057C873.712 798.193 875.359 798.761 877.382 798.761C879.428 798.761 881.246 798.193 882.837 797.057C884.45 795.898 885.803 794.273 886.893 792.182C887.984 790.091 888.78 787.636 889.28 784.818C889.712 782 889.723 779.557 889.314 777.489C888.928 775.42 888.121 773.818 886.893 772.682C885.666 771.545 884.018 770.977 881.95 770.977C879.928 770.977 878.087 771.534 876.428 772.648C874.791 773.761 873.428 775.352 872.337 777.42C871.246 779.489 870.473 781.955 870.018 784.818ZM935.089 811.989C929.612 811.989 925.067 810.909 921.453 808.75C917.862 806.568 915.339 803.466 913.885 799.443C912.43 795.398 912.169 790.591 913.101 785.023C914.01 779.614 915.862 774.886 918.658 770.841C921.476 766.773 925.021 763.614 929.294 761.364C933.567 759.091 938.328 757.955 943.578 757.955C947.305 757.955 950.612 758.534 953.499 759.693C956.385 760.852 958.771 762.58 960.658 764.875C962.544 767.148 963.828 769.943 964.51 773.261C965.192 776.58 965.169 780.386 964.442 784.682L963.794 788.841H918.317L919.851 779.159H949.851C950.124 777.386 949.976 775.807 949.408 774.42C948.839 773.034 947.919 771.955 946.646 771.182C945.396 770.386 943.862 769.989 942.044 769.989C940.203 769.989 938.476 770.42 936.862 771.284C935.271 772.125 933.919 773.261 932.805 774.693C931.692 776.125 930.964 777.739 930.624 779.534L928.817 789.455C928.453 791.659 928.555 793.545 929.124 795.114C929.692 796.682 930.669 797.886 932.055 798.727C933.442 799.545 935.226 799.955 937.408 799.955C938.862 799.955 940.226 799.761 941.499 799.375C942.771 798.966 943.908 798.364 944.908 797.568C945.93 796.75 946.76 795.761 947.396 794.602L962.601 795.045C961.374 798.477 959.476 801.466 956.908 804.011C954.339 806.534 951.203 808.5 947.499 809.909C943.817 811.295 939.68 811.989 935.089 811.989ZM968.592 811L977.32 758.636H993.513L991.911 768.182H992.456C993.979 764.727 995.967 762.159 998.422 760.477C1000.88 758.773 1003.54 757.92 1006.4 757.92C1007.17 757.92 1007.94 757.977 1008.72 758.091C1009.51 758.182 1010.26 758.318 1010.97 758.5L1008.51 773.023C1007.74 772.727 1006.73 772.511 1005.48 772.375C1004.23 772.216 1003.09 772.136 1002.07 772.136C1000.09 772.136 998.251 772.58 996.547 773.466C994.865 774.33 993.433 775.545 992.251 777.114C991.092 778.659 990.331 780.477 989.967 782.568L985.263 811H968.592Z" fill="white"/>
<mask id="mask0_12_19" style="mask-type:alpha" maskUnits="userSpaceOnUse" x="170" y="0" width="672" height="705">
<path fill-rule="evenodd" clip-rule="evenodd" d="M170 0.938599H841.651V704.93H170V0.938599Z" fill="white"/>
</mask>
<g mask="url(#mask0_12_19)">
<path fill-rule="evenodd" clip-rule="evenodd" d="M828.05 269.627L777.883 352.493L827.951 435.198C846.218 465.37 846.218 501.395 827.952 531.565C809.687 561.737 776.971 579.748 740.439 579.748H640.301L593.993 656.238C575.537 686.727 542.477 704.93 505.56 704.93C468.643 704.93 435.582 686.727 417.123 656.238L370.817 579.748H270.48C234.213 579.748 201.735 561.867 183.601 531.915C165.467 501.96 165.467 466.195 183.601 436.242L233.769 353.375L183.699 270.672C165.434 240.501 165.434 204.476 183.699 174.304C201.965 144.132 234.681 126.12 271.213 126.12H371.352L417.658 49.6309C436.114 19.1436 469.179 0.938599 506.094 0.938599C543.011 0.938599 576.069 19.1417 594.528 49.6309L640.834 126.12H741.171C777.439 126.12 809.918 144.003 828.051 173.956C846.185 203.908 846.185 239.673 828.05 269.627ZM506.094 22.0222C477.168 22.0212 451.266 36.2832 436.803 60.1722L396.878 126.12H615.307L575.381 60.1722C560.92 36.2832 535.018 22.0222 506.094 22.0222ZM638.2 541.055L637.128 542.825L636.971 543.084L634.396 547.337L620.713 569.941L618.356 573.833L589.92 620.806L581.345 634.968L575.306 644.943L575.079 644.993L574.943 645.217C560.482 669.106 534.1 675.988 505.176 675.986C476.293 675.986 450.902 669.146 436.43 645.317L435.973 645.207L421.295 620.962L417.617 614.89L259.296 353.375L288.013 305.943L288.017 305.958L338.669 222.332L338.634 222.327L344.384 212.83L344.421 212.837L384.176 147.203L628.079 147.121L752.356 352.495L638.2 541.055ZM808.807 521.024C794.537 544.594 768.978 558.666 740.439 558.666H653.065L765.118 373.576L808.806 445.739C823.076 469.31 823.076 497.453 808.807 521.024ZM202.747 521.373C216.885 544.726 242.205 558.666 270.48 558.666H358.053L246.533 374.458L202.747 446.783C188.61 470.137 188.61 498.019 202.747 521.373ZM202.846 260.131C188.576 236.56 188.576 208.415 202.846 184.845C217.115 161.274 242.673 147.203 271.213 147.203H358.587L246.533 332.293L202.846 260.131ZM741.171 147.203C769.447 147.203 794.769 161.143 808.906 184.497C823.044 207.848 823.042 235.733 808.906 259.086L765.118 331.412L653.599 147.203H741.171Z" fill="#03C4E8"/>
</g>
<path d="M625.004 386.136L587.342 378.167L616.635 418.015V541.545L709.429 461.849L717.067 326.364L671.035 342.303L625.004 386.136Z" fill="#03C4E8"/>
<path d="M390.661 386.136L428.323 378.167L399.03 418.015V541.545L306.236 461.849L298.597 326.364L344.629 342.303L390.661 386.136Z" fill="#03C4E8"/>
<path fill-rule="evenodd" clip-rule="evenodd" d="M411.584 425.984L445.061 378.167L465.986 390.122H549.68L570.603 378.167L604.08 425.984V605.303L564.957 676.412H443.07L411.584 605.303V425.984Z" fill="#03C4E8"/>
<path d="M616.635 617.258L671.036 565.454V513.651L616.635 557.485V617.258Z" fill="#03C4E8"/>
<path d="M399.03 617.258L344.629 565.454V513.651L399.03 557.485V617.258Z" fill="#03C4E8"/>
<path fill-rule="evenodd" clip-rule="evenodd" d="M453.43 147.046L419.953 222.759L474.355 374.182H499.462V147.046H453.43ZM516.201 147.046V374.182H545.494L595.71 222.759L562.233 147.046H516.201Z" fill="#03C4E8"/>
<path d="M474.355 374.182L294.412 310.425L269.304 210.804L424.138 222.759L478.539 374.182H474.355Z" fill="#03C4E8"/>
<path d="M545.495 374.182L725.438 310.425L750.545 210.804L591.526 222.759L541.31 374.182H545.495Z" fill="#03C4E8"/>
<path d="M604.08 210.804L684.32 202.834L633.374 147.046H574.787L604.08 210.804Z" fill="#03C4E8"/>
<path d="M411.584 210.804L331.343 202.834L382.291 147.046H440.877L411.584 210.804Z" fill="#03C4E8"/>
</svg>
