<svg version="1.1" id="Layer_1" xmlns="http://www.w3.org/2000/svg" xmlns:xlink="http://www.w3.org/1999/xlink" x="0px" y="0px" width="1200px" height="1200px" viewBox="0 0 1200 1200" enable-background="new 0 0 1200 1200" xml:space="preserve">
<g>
	<g>
		<path fill="#008648" d="M456.35,708.246v25.836H330.793v-22.538v-66.076v-8.917v-1.02v-2.646&#10;&#9;&#9;&#9;c0.433-6.835,2.668-13.299,6.638-19.177c5.14-7.897,12.062-13.341,20.629-16.269c3.71-1.975,7.919-3.428,12.559-4.447&#10;&#9;&#9;&#9;c4.947-1.715,10.283-3.601,16.118-5.707c5.793-2.081,10.869-3.883,15.316-5.358c1.453-0.52,2.973-0.997,4.403-1.453&#10;&#9;&#9;&#9;c1.519-0.52,2.777-1.042,3.732-1.497c6.333-2.212,10.434-5.271,12.149-9.241c1.735-3.947,2.603-7.506,2.603-10.716v-3.299v-38.049&#10;&#9;&#9;&#9;v-3.319c0-2.212-0.304-4.663-0.913-7.202c-0.606-2.603-1.995-5.12-4.034-7.57c-2.17-2.472-5.207-4.512-9.241-6.073&#10;&#9;&#9;&#9;c-4.123-1.65-9.59-2.452-16.465-2.452c-6.877,0-12.495,0.802-16.813,2.452c-4.294,1.562-7.612,3.492-9.978,5.66&#10;&#9;&#9;&#9;c-2.299,2.212-3.883,4.665-4.643,7.204c-0.715,2.623-1.084,5.009-1.084,7.202v4.098h-30.977v-9.241&#10;&#9;&#9;&#9;c0-2.972,0.433-6.984,1.431-12.017c0.955-5.034,3.536-10.023,7.724-14.967c4.207-4.902,10.498-9.154,18.873-12.691&#10;&#9;&#9;&#9;c8.372-3.579,19.937-5.422,34.731-5.422c14.75,0,26.356,1.886,34.686,5.596c8.417,3.665,14.664,7.961,18.873,12.864&#10;&#9;&#9;&#9;c4.188,4.967,6.768,9.958,7.724,15.012c1.02,5.076,1.517,8.936,1.517,11.626v7.397v39.893v8.83v2.95&#10;&#9;&#9;&#9;c-0.78,8.634-3.992,16.551-9.783,23.797c-5.835,7.288-15.358,12.799-28.635,16.465c-0.498,0-1.236,0.282-2.235,0.782&#10;&#9;&#9;&#9;c-4.185,1.453-8.763,3.037-13.861,4.794c-5.011,1.693-9.523,3.168-13.47,4.38c-1.693,0.564-3.754,1.26-6.076,2.257&#10;&#9;&#9;&#9;c-2.363,0.977-4.165,1.693-5.38,2.19c-6.42,1.975-10.476,4.925-12.169,8.916c-1.693,3.883-2.712,7.355-2.972,10.283v66.878h71.305&#10;&#9;&#9;&#9;H456.35z" style="fill: rgb(255, 255, 255);"/>
		<path fill="#008648" d="M555.313,537.938c14.794,0,26.334,1.844,34.708,5.422c8.33,3.536,14.708,7.766,18.85,12.69&#10;&#9;&#9;&#9;c4.187,4.945,6.791,9.914,7.746,14.99c0.997,5.011,1.431,8.917,1.431,11.671v9.176v93.083v7.375c0,2.712-0.433,6.595-1.431,11.649&#10;&#9;&#9;&#9;c-0.955,5.011-3.559,10.045-7.746,14.97c-4.143,4.903-10.52,9.154-18.85,12.711c-8.374,3.601-19.914,5.358-34.708,5.358&#10;&#9;&#9;&#9;c-14.772,0-26.336-1.757-34.708-5.358c-8.375-3.556-14.665-7.808-18.83-12.711c-4.207-4.925-6.811-9.892-7.766-14.794&#10;&#9;&#9;&#9;c-0.975-4.905-1.475-8.852-1.475-11.824v-9.587h30.979v4.034c0,2.235,0.388,4.643,1.17,7.202c0.693,2.583,2.212,5.011,4.556,7.246&#10;&#9;&#9;&#9;c2.386,2.19,5.727,4.101,10.02,5.707c4.296,1.604,9.894,2.386,16.769,2.386c6.919,0,12.386-0.782,16.465-2.386&#10;&#9;&#9;&#9;c4.056-1.606,7.159-3.581,9.416-5.924c2.19-2.319,3.643-4.794,4.207-7.353c0.651-2.603,0.955-5.011,0.955-7.224v-3.687v-90.871&#10;&#9;&#9;&#9;v-3.341c0-2.192-0.304-4.578-0.955-7.182c-0.564-2.581-2.017-5.054-4.207-7.375c-2.257-2.344-5.36-4.274-9.416-5.9&#10;&#9;&#9;&#9;c-4.079-1.648-9.437-2.408-16.096-2.408c-6.897,0-12.473,0.76-16.769,2.408c-4.316,1.626-7.613,3.47-9.956,5.727&#10;&#9;&#9;&#9;c-2.386,2.19-3.905,4.556-4.643,7.202c-0.737,2.581-1.128,4.816-1.128,6.791v4.078h-0.388h-30.979V488.868v-22.54h125.515v25.859&#10;&#9;&#9;&#9;h-23.211h-71.325v49.827C532.405,539.346,543.014,537.938,555.313,537.938z" style="fill: rgb(255, 255, 255);"/>
		<path fill="#008648" d="M674.082,485.723c0.846-3.103,2.646-6.095,5.358-9.048c2.69-2.95,6.724-5.445,12.149-7.57&#10;&#9;&#9;&#9;c5.4-2.104,12.668-3.101,21.778-3.101c9.154,0,16.358,0.997,21.78,3.101c5.445,2.126,9.501,4.62,12.191,7.57&#10;&#9;&#9;&#9;c2.712,2.952,4.514,5.944,5.38,9.048c0.911,3.079,1.302,5.682,1.302,7.961v65.339c0,2.212-0.391,4.967-1.302,8.135&#10;&#9;&#9;&#9;c-0.866,3.188-2.668,6.291-5.38,9.219c-2.69,2.95-6.746,5.467-12.191,7.593c-5.422,2.084-12.626,3.103-21.78,3.103&#10;&#9;&#9;&#9;c-9.11,0-16.378-1.02-21.778-3.103c-5.425-2.126-9.458-4.643-12.149-7.593c-2.712-2.928-4.512-6.031-5.358-9.219&#10;&#9;&#9;&#9;c-0.933-3.168-1.302-5.922-1.302-8.135v-65.339C672.78,491.405,673.149,488.802,674.082,485.723z M850.465,463.032&#10;&#9;&#9;&#9;c-5.249,10.303-11.366,22.755-18.331,37.267c-7.006,14.556-14.599,30.088-22.713,46.706c-8.113,16.66-16.443,33.776-24.901,51.562&#10;&#9;&#9;&#9;c-8.548,17.746-16.923,34.948-25.166,51.695c-8.243,16.747-15.9,32.538-23.037,47.463c-7.158,14.881-13.448,27.876-18.851,38.96&#10;&#9;&#9;&#9;h-27.353l132.585-273.654H850.465z M698.094,564.208c2.279,2.71,7.202,4.012,14.534,4.012c4.209,0,7.593-0.389,10.154-1.257&#10;&#9;&#9;&#9;c2.601-0.869,4.598-1.908,5.9-3.145c1.344-1.151,2.299-2.581,2.819-4.056c0.522-1.475,0.717-2.69,0.717-3.71v-59.048&#10;&#9;&#9;&#9;c0-1.215-0.195-2.603-0.717-4.101c-0.52-1.497-1.475-2.841-2.819-4.034c-1.302-1.279-3.299-2.299-5.9-3.145&#10;&#9;&#9;&#9;c-2.561-0.891-5.944-1.302-10.154-1.302c-7.333,0-12.255,1.431-14.534,4.229c-2.408,2.863-3.536,5.749-3.536,8.699v58.375&#10;&#9;&#9;&#9;C694.558,558.654,695.687,561.495,698.094,564.208z M789.27,632.345c0.891-3.039,2.648-6.075,5.358-9.07&#10;&#9;&#9;&#9;c2.69-2.95,6.79-5.445,12.193-7.57c5.423-2.081,12.711-3.145,21.823-3.145c9.068,0,16.333,1.064,21.822,3.145&#10;&#9;&#9;&#9;c5.336,2.126,9.414,4.62,12.148,7.57c2.69,2.994,4.469,6.031,5.336,9.07c0.869,3.057,1.26,5.704,1.26,7.961v65.359&#10;&#9;&#9;&#9;c0,2.17-0.391,4.902-1.26,8.135c-0.866,3.19-2.646,6.249-5.336,9.221c-2.734,2.906-6.813,5.467-12.148,7.548&#10;&#9;&#9;&#9;c-5.489,2.126-12.755,3.168-21.822,3.168c-9.112,0-16.4-1.042-21.823-3.168c-5.402-2.081-9.503-4.643-12.193-7.548&#10;&#9;&#9;&#9;c-2.71-2.972-4.468-6.031-5.358-9.221c-0.846-3.232-1.322-5.964-1.322-8.135v-65.359&#10;&#9;&#9;&#9;C787.948,638.049,788.423,635.402,789.27,632.345z M813.089,710.634c2.235,2.863,7.179,4.229,14.772,4.229&#10;&#9;&#9;&#9;c4.209,0,7.593-0.391,10.196-1.257c2.559-0.869,4.556-1.933,5.9-3.125c1.368-1.257,2.279-2.646,2.757-4.078&#10;&#9;&#9;&#9;c0.52-1.495,0.757-2.69,0.757-3.665v-59.092c0-1.302-0.238-2.623-0.757-4.078c-0.478-1.517-1.388-2.863-2.757-4.034&#10;&#9;&#9;&#9;c-1.344-1.302-3.341-2.321-5.9-3.188c-2.603-0.869-5.987-1.26-10.196-1.26c-7.593,0-12.537,1.388-14.772,4.209&#10;&#9;&#9;&#9;c-2.235,2.841-3.319,5.727-3.319,8.677v58.332C809.77,705.058,810.854,707.813,813.089,710.634z" style="fill: rgb(255, 255, 255);"/>
	</g>
	<path fill="#5C5C5B" d="M600.933,50.5c-303.286,0-549.131,245.867-549.131,549.154c0,303.222,245.845,549.131,549.131,549.131&#10;&#9;&#9;c303.287,0,549.067-245.909,549.067-549.131C1150,296.367,904.22,50.5,600.933,50.5z M600.933,1027.413&#10;&#9;&#9;c-214.129,0-391.489-157.273-422.793-362.661c-3.276-21.258-4.967-42.994-4.967-65.099c0-236.278,191.46-427.782,427.76-427.782&#10;&#9;&#9;c236.256,0,427.76,191.504,427.76,427.782c0,22.105-1.734,43.84-4.945,65.099C992.422,870.14,815.064,1027.413,600.933,1027.413z" style="fill: rgb(95, 46, 175);"/>
	<g>
		<defs>
			<path id="SVGID_1_" d="M1148.243,600.369c0,303.287-245.89,549.132-549.132,549.132C295.825,1149.5,50,903.655,50,600.369&#10;&#9;&#9;&#9;&#9;C50,297.124,295.825,51.279,599.111,51.279C902.354,51.279,1148.243,297.124,1148.243,600.369z"/>
		</defs>
		<clipPath id="SVGID_2_">
			<use xlink:href="#SVGID_1_" overflow="visible"/>
		</clipPath>
	</g>
	<path fill="#008648" d="M1026.871,600.369h121.372c0-303.244-245.89-549.089-549.132-549.089v121.35&#10;&#9;&#9;C835.345,172.629,1026.871,364.178,1026.871,600.369z" style="fill: rgb(255, 255, 255);"/>
</g>
</svg>