<svg version="1.1" id="Layer_1" xmlns="http://www.w3.org/2000/svg" xmlns:xlink="http://www.w3.org/1999/xlink" x="0px" y="0px" width="1200px" height="1200px" viewBox="0 0 1200 1200" enable-background="new 0 0 1200 1200" xml:space="preserve">
<g>
	<g>
		<path fill="#008648" d="M393.725,537.993c14.781,0,26.309,1.797,34.716,5.352c8.363,3.619,14.628,7.822,18.852,12.697&#10;&#9;&#9;&#9;c4.139,4.964,6.717,9.948,7.715,14.996c0.996,5.028,1.493,8.929,1.493,11.636v9.211v92.962v7.369&#10;&#9;&#9;&#9;c0,2.685-0.497,6.608-1.493,11.656c-0.999,5.006-3.577,10.034-7.715,14.932c-4.225,4.897-10.489,9.122-18.852,12.719&#10;&#9;&#9;&#9;c-8.407,3.597-19.935,5.352-34.716,5.352c-14.692,0-26.306-1.755-34.627-5.352c-8.366-3.597-14.628-7.822-18.81-12.719&#10;&#9;&#9;&#9;c-4.203-4.897-6.781-9.859-7.735-14.801c-1.019-4.897-1.496-8.798-1.496-11.787v-9.579h30.988v4.032&#10;&#9;&#9;&#9;c0,2.252,0.346,4.658,1.083,7.236c0.737,2.558,2.297,4.964,4.616,7.194c2.341,2.212,5.678,4.118,9.99,5.723&#10;&#9;&#9;&#9;c4.247,1.58,9.861,2.339,16.729,2.339c6.934,0,12.395-0.759,16.449-2.339c4.052-1.604,7.194-3.577,9.426-5.896&#10;&#9;&#9;&#9;c2.252-2.339,3.617-4.811,4.225-7.389c0.628-2.621,0.932-4.962,0.932-7.194v-3.706v-90.752v-3.337c0-2.21-0.304-4.615-0.932-7.194&#10;&#9;&#9;&#9;c-0.608-2.601-1.973-5.05-4.225-7.347c-2.232-2.383-5.374-4.311-9.426-5.938c-4.054-1.582-9.428-2.339-16.014-2.339&#10;&#9;&#9;&#9;c-6.914,0-12.482,0.757-16.815,2.339c-4.291,1.627-7.584,3.49-9.948,5.765c-2.361,2.166-3.834,4.571-4.658,7.194&#10;&#9;&#9;&#9;c-0.695,2.514-1.085,4.769-1.085,6.761v4.096h-0.346h-30.988V488.931v-22.514h125.446v25.829h-23.273h-71.185v49.798&#10;&#9;&#9;&#9;C370.885,539.38,381.418,537.993,393.725,537.993z" style="fill: rgb(255, 255, 255);"/>
		<path fill="#008648" d="M618.115,688.142v3.726c0,2.947-0.561,6.87-1.516,11.789c-0.954,4.939-3.575,9.881-7.715,14.734&#10;&#9;&#9;&#9;c-4.203,4.984-10.487,9.189-18.83,12.786c-8.366,3.51-19.935,5.31-34.672,5.31c-14.778,0-26.308-1.8-34.672-5.31&#10;&#9;&#9;&#9;c-8.386-3.597-14.65-7.802-18.852-12.786c-4.205-4.853-6.761-9.881-7.758-14.952c-0.954-5.006-1.409-8.885-1.409-11.572v-9.231&#10;&#9;&#9;&#9;V517.405v-9.686c0-2.665,0.455-6.522,1.409-11.55c0.996-5.028,3.553-10.054,7.758-14.974c4.203-4.919,10.467-9.144,18.852-12.741&#10;&#9;&#9;&#9;c8.364-3.533,19.893-5.332,34.672-5.332c14.736,0,26.306,1.8,34.672,5.332c8.343,3.597,14.628,7.822,18.83,12.741&#10;&#9;&#9;&#9;c4.141,4.919,6.761,9.945,7.715,14.974c0.954,5.028,1.516,8.885,1.516,11.55v3.728V688.142z M586.716,682.637h0.413V517.405&#10;&#9;&#9;&#9;h-0.413v-4.094c0-2.212-0.391-4.618-1.083-7.196c-0.737-2.601-2.21-4.984-4.42-7.194c-2.232-2.232-5.505-4.116-9.839-5.721&#10;&#9;&#9;&#9;c-4.247-1.604-9.968-2.428-17.075-2.428c-6.633,0-12.027,0.823-16.079,2.428c-4.032,1.604-7.196,3.597-9.426,6.067&#10;&#9;&#9;&#9;c-2.232,2.472-3.641,4.984-4.227,7.542c-0.65,2.621-0.952,5.006-0.952,7.238v3.357v165.232v3.337c0,2.168,0.301,4.593,0.952,7.172&#10;&#9;&#9;&#9;c0.586,2.581,1.995,5.028,4.227,7.411c2.23,2.341,5.394,4.314,9.426,5.874c4.052,1.602,9.446,2.428,16.079,2.428&#10;&#9;&#9;&#9;c7.107,0,12.828-0.825,17.075-2.428c4.334-1.56,7.607-3.468,9.839-5.743c2.21-2.21,3.683-4.573,4.42-7.152&#10;&#9;&#9;&#9;c0.692-2.621,1.083-4.897,1.083-6.868V682.637z" style="fill: rgb(255, 255, 255);"/>
		<path fill="#008648" d="M674.002,485.811c0.823-3.078,2.623-6.111,5.288-9.036c2.774-2.969,6.803-5.483,12.222-7.542&#10;&#9;&#9;&#9;c5.417-2.124,12.655-3.164,21.755-3.164c9.103,0,16.341,1.041,21.757,3.164c5.417,2.059,9.471,4.573,12.178,7.542&#10;&#9;&#9;&#9;c2.687,2.925,4.509,5.958,5.332,9.036c0.888,3.098,1.256,5.698,1.256,7.931v65.247c0,2.277-0.369,4.986-1.256,8.17&#10;&#9;&#9;&#9;c-0.823,3.206-2.645,6.306-5.332,9.189c-2.707,2.989-6.761,5.503-12.178,7.584c-5.417,2.101-12.654,3.162-21.757,3.162&#10;&#9;&#9;&#9;c-9.1,0-16.338-1.061-21.755-3.162c-5.419-2.081-9.448-4.596-12.222-7.584c-2.665-2.883-4.465-5.982-5.288-9.189&#10;&#9;&#9;&#9;c-0.91-3.184-1.3-5.894-1.3-8.17v-65.247C672.702,491.51,673.092,488.909,674.002,485.811z M850.111,463.122&#10;&#9;&#9;&#9;c-5.135,10.338-11.204,22.753-18.224,37.272c-7.021,14.519-14.605,30.034-22.709,46.634&#10;&#9;&#9;&#9;c-8.104,16.642-16.361,33.762-24.899,51.465c-8.472,17.705-16.858,34.953-25.073,51.66c-8.234,16.773-15.97,32.528-23.055,47.435&#10;&#9;&#9;&#9;c-7.152,14.909-13.414,27.846-18.852,38.899h-27.282l132.444-273.365H850.111z M697.991,564.234&#10;&#9;&#9;&#9;c2.317,2.729,7.15,4.008,14.561,4.008c4.161,0,7.54-0.433,10.121-1.256c2.578-0.868,4.549-1.906,5.894-3.186&#10;&#9;&#9;&#9;c1.342-1.169,2.297-2.534,2.752-4.008c0.519-1.496,0.759-2.687,0.759-3.75v-58.941c0-1.236-0.24-2.623-0.759-4.096&#10;&#9;&#9;&#9;c-0.455-1.496-1.409-2.838-2.752-4.074c-1.345-1.234-3.315-2.297-5.894-3.12c-2.581-0.868-5.96-1.323-10.121-1.323&#10;&#9;&#9;&#9;c-7.411,0-12.244,1.453-14.561,4.269c-2.405,2.838-3.533,5.721-3.533,8.69v58.293&#10;&#9;&#9;&#9;C694.459,558.687,695.586,561.503,697.991,564.234z M789.112,632.299c0.823-3.1,2.643-6.111,5.33-9.038&#10;&#9;&#9;&#9;c2.709-2.969,6.719-5.503,12.18-7.604c5.373-2.059,12.633-3.1,21.755-3.1c9.08,0,16.341,1.041,21.735,3.1&#10;&#9;&#9;&#9;c5.439,2.101,9.493,4.635,12.244,7.604c2.643,2.927,4.42,5.938,5.33,9.038c0.868,3.033,1.3,5.698,1.3,7.931v65.269&#10;&#9;&#9;&#9;c0,2.21-0.433,4.939-1.3,8.148c-0.91,3.206-2.687,6.262-5.33,9.187c-2.752,2.927-6.806,5.505-12.244,7.584&#10;&#9;&#9;&#9;c-5.394,2.104-12.655,3.142-21.735,3.142c-9.122,0-16.382-1.039-21.755-3.142c-5.461-2.079-9.471-4.658-12.18-7.584&#10;&#9;&#9;&#9;c-2.688-2.925-4.507-5.98-5.33-9.187c-0.91-3.209-1.3-5.938-1.3-8.148V640.23C787.811,637.998,788.202,635.333,789.112,632.299z&#10;&#9;&#9;&#9; M812.883,710.483c2.232,2.838,7.172,4.247,14.756,4.247c4.205,0,7.543-0.433,10.143-1.3c2.598-0.823,4.571-1.886,5.871-3.12&#10;&#9;&#9;&#9;c1.365-1.214,2.341-2.601,2.796-4.032c0.519-1.493,0.737-2.687,0.737-3.726v-58.985c0-1.278-0.218-2.601-0.737-4.074&#10;&#9;&#9;&#9;c-0.455-1.496-1.431-2.84-2.796-4.096c-1.3-1.214-3.273-2.274-5.871-3.098c-2.6-0.868-5.938-1.323-10.143-1.323&#10;&#9;&#9;&#9;c-7.584,0-12.524,1.451-14.756,4.225c-2.232,2.882-3.273,5.765-3.273,8.69v58.293&#10;&#9;&#9;&#9;C809.611,704.891,810.651,707.687,812.883,710.483z" style="fill: rgb(255, 255, 255);"/>
	</g>
	<path fill="#5C5C5B" d="M601.472,51.355c-302.942,0-548.525,245.584-548.525,548.483c0,302.986,245.583,548.612,548.525,548.612&#10;&#9;&#9;c302.966,0,548.528-245.626,548.528-548.612C1150,296.938,904.439,51.355,601.472,51.355z M601.472,1027.165&#10;&#9;&#9;c-213.879,0-391.073-157.042-422.363-362.211c-3.229-21.236-4.919-42.971-4.919-65.116c0-235.94,191.301-427.24,427.283-427.24&#10;&#9;&#9;c235.984,0,427.285,191.301,427.285,427.24c0,22.145-1.646,43.88-4.897,65.116C992.59,870.123,815.375,1027.165,601.472,1027.165z" style="fill: rgb(93, 47, 177);"/>
	<g>
		<g>
			<defs>
				<path id="SVGID_1_" d="M1147.053,600.033c0,303.006-245.561,548.612-548.506,548.612C295.606,1148.645,50,903.04,50,600.033&#10;&#9;&#9;&#9;&#9;&#9;c0-302.9,245.606-548.461,548.548-548.461C901.492,51.572,1147.053,297.133,1147.053,600.033z" style="fill: rgb(223, 17, 17);"/>
			</defs>
			<clipPath id="SVGID_2_">
				<use xlink:href="#SVGID_1_" overflow="visible"/>
			</clipPath>
		</g>
	</g>
	<path fill="#008648" d="M1025.788,600.033c0-235.942-191.256-427.243-427.24-427.243V51.572&#10;&#9;&#9;c302.944,0,548.506,245.561,548.506,548.461c0,303.006-245.561,548.612-548.506,548.612V1027.38&#10;&#9;&#9;C834.532,1027.38,1025.788,836.124,1025.788,600.033z" style="fill: rgb(255, 255, 255);"/>
</g>
</svg>